<svg xmlns="http://www.w3.org/2000/svg" viewBox="-2650.261 2761.55 40 40">
  <defs>
    <style>
      .cls-1 {
        fill: #8e8e8f;
      }
    </style>
  </defs>
  <g id="Group_37" data-name="Group 37" transform="translate(-3200 -1131)">
    <path id="Path_4" data-name="Path 4" class="cls-1" d="M28.084,0H11.916A11.93,11.93,0,0,0,0,11.916V28.084A11.93,11.93,0,0,0,11.916,40H28.084A11.93,11.93,0,0,0,40,28.084V11.916A11.93,11.93,0,0,0,28.084,0Zm7.892,28.084a7.892,7.892,0,0,1-7.892,7.892H11.916a7.892,7.892,0,0,1-7.892-7.892V11.916a7.892,7.892,0,0,1,7.892-7.892H28.084a7.892,7.892,0,0,1,7.892,7.892V28.084Z" transform="translate(549.739 3892.55)"/>
    <path id="Path_5" data-name="Path 5" class="cls-1" d="M143.345,133a10.345,10.345,0,1,0,10.345,10.345A10.357,10.357,0,0,0,143.345,133Zm0,16.667a6.321,6.321,0,1,1,6.321-6.321A6.321,6.321,0,0,1,143.345,149.667Z" transform="translate(426.393 3769.204)"/>
    <ellipse id="Ellipse_6" data-name="Ellipse 6" class="cls-1" cx="2.479" cy="2.479" rx="2.479" ry="2.479" transform="translate(577.625 3899.803)"/>
  </g>
</svg>
